<mxfile host="app.diagrams.net" modified="2024-01-29T17:32:16.741Z" agent="Mozilla/5.0 (Windows NT 10.0; Win64; x64) AppleWebKit/537.36 (KHTML, like Gecko) Chrome/120.0.0.0 Safari/537.36" etag="LR3ibrVUzq74UsEV16qW" version="23.0.2" type="device">
  <diagram name="Pagina-1" id="TJIYRlZVVNKg7LEigqh6">
    <mxGraphModel dx="1034" dy="412" grid="1" gridSize="10" guides="1" tooltips="1" connect="1" arrows="1" fold="1" page="1" pageScale="1" pageWidth="827" pageHeight="1169" math="0" shadow="0">
      <root>
        <mxCell id="0" />
        <mxCell id="1" parent="0" />
        <mxCell id="VYkuQ8G43RXA0hPSaBdG-6" value="" style="html=1;whiteSpace=wrap;fillColor=none;" parent="1" vertex="1">
          <mxGeometry x="113.5" y="50" width="600" height="720" as="geometry" />
        </mxCell>
        <mxCell id="VYkuQ8G43RXA0hPSaBdG-1" value="Customer" style="shape=umlActor;verticalLabelPosition=bottom;verticalAlign=top;html=1;" parent="1" vertex="1">
          <mxGeometry x="26" y="306" width="30" height="60" as="geometry" />
        </mxCell>
        <mxCell id="VYkuQ8G43RXA0hPSaBdG-4" value="Manager" style="shape=umlActor;verticalLabelPosition=bottom;verticalAlign=top;html=1;" parent="1" vertex="1">
          <mxGeometry x="38" y="617" width="30" height="60" as="geometry" />
        </mxCell>
        <mxCell id="VYkuQ8G43RXA0hPSaBdG-9" value="&lt;font style=&quot;font-size: 11px;&quot;&gt;Log In&lt;/font&gt;" style="ellipse;whiteSpace=wrap;html=1;" parent="1" vertex="1">
          <mxGeometry x="398" y="462" width="100" height="60" as="geometry" />
        </mxCell>
        <mxCell id="YGv7T2RvrnoPIYcgh6Ru-1" value="&lt;font style=&quot;font-size: 11px;&quot;&gt;Join &lt;u&gt;Shared Match&lt;/u&gt;&amp;nbsp;&lt;/font&gt;" style="ellipse;whiteSpace=wrap;html=1;" parent="1" vertex="1">
          <mxGeometry x="227.5" y="295" width="100" height="60" as="geometry" />
        </mxCell>
        <mxCell id="YGv7T2RvrnoPIYcgh6Ru-2" value="&lt;font style=&quot;font-size: 11px;&quot;&gt;Reserve Football Pitch&lt;/font&gt;" style="ellipse;whiteSpace=wrap;html=1;" parent="1" vertex="1">
          <mxGeometry x="224" y="189" width="100" height="60" as="geometry" />
        </mxCell>
        <mxCell id="YGv7T2RvrnoPIYcgh6Ru-4" value="&lt;font style=&quot;font-size: 11px;&quot;&gt;Create Tournament&lt;/font&gt;" style="ellipse;whiteSpace=wrap;html=1;" parent="1" vertex="1">
          <mxGeometry x="192.38" y="537" width="100" height="60" as="geometry" />
        </mxCell>
        <mxCell id="YGv7T2RvrnoPIYcgh6Ru-7" value="&lt;font style=&quot;font-size: 12px;&quot;&gt;Google API&lt;br&gt;&lt;/font&gt;" style="shape=umlActor;verticalLabelPosition=bottom;verticalAlign=top;html=1;" parent="1" vertex="1">
          <mxGeometry x="758" y="302" width="30" height="60" as="geometry" />
        </mxCell>
        <mxCell id="YGv7T2RvrnoPIYcgh6Ru-24" value="" style="endArrow=classic;html=1;rounded=0;exitX=1;exitY=0.3333333333333333;exitDx=0;exitDy=0;exitPerimeter=0;entryX=0;entryY=0.5;entryDx=0;entryDy=0;" parent="1" source="VYkuQ8G43RXA0hPSaBdG-1" target="YGv7T2RvrnoPIYcgh6Ru-2" edge="1">
          <mxGeometry width="50" height="50" relative="1" as="geometry">
            <mxPoint x="68" y="289" as="sourcePoint" />
            <mxPoint x="438" y="309" as="targetPoint" />
          </mxGeometry>
        </mxCell>
        <mxCell id="YGv7T2RvrnoPIYcgh6Ru-30" value="" style="endArrow=classic;html=1;rounded=0;exitX=1;exitY=0.3333333333333333;exitDx=0;exitDy=0;exitPerimeter=0;entryX=0;entryY=0.5;entryDx=0;entryDy=0;" parent="1" source="VYkuQ8G43RXA0hPSaBdG-1" target="YGv7T2RvrnoPIYcgh6Ru-1" edge="1">
          <mxGeometry width="50" height="50" relative="1" as="geometry">
            <mxPoint x="68" y="289" as="sourcePoint" />
            <mxPoint x="358" y="349" as="targetPoint" />
          </mxGeometry>
        </mxCell>
        <mxCell id="YGv7T2RvrnoPIYcgh6Ru-35" value="" style="endArrow=classic;html=1;rounded=0;entryX=0;entryY=0.3333333333333333;entryDx=0;entryDy=0;entryPerimeter=0;exitX=1;exitY=0.5;exitDx=0;exitDy=0;" parent="1" source="pXMUvUlf4i8bMqYEDKzL-3" target="YGv7T2RvrnoPIYcgh6Ru-7" edge="1">
          <mxGeometry width="50" height="50" relative="1" as="geometry">
            <mxPoint x="538" y="432" as="sourcePoint" />
            <mxPoint x="588" y="382" as="targetPoint" />
          </mxGeometry>
        </mxCell>
        <mxCell id="pXMUvUlf4i8bMqYEDKzL-3" value="&lt;font style=&quot;font-size: 11px;&quot;&gt;Log In Via Google&lt;/font&gt;" style="ellipse;whiteSpace=wrap;html=1;" parent="1" vertex="1">
          <mxGeometry x="398" y="292" width="100" height="60" as="geometry" />
        </mxCell>
        <mxCell id="pXMUvUlf4i8bMqYEDKzL-4" value="" style="endArrow=classic;html=1;rounded=0;exitX=0.5;exitY=1;exitDx=0;exitDy=0;entryX=0.5;entryY=0;entryDx=0;entryDy=0;" parent="1" source="pXMUvUlf4i8bMqYEDKzL-3" target="VYkuQ8G43RXA0hPSaBdG-9" edge="1">
          <mxGeometry relative="1" as="geometry">
            <mxPoint x="478" y="362" as="sourcePoint" />
            <mxPoint x="578" y="362" as="targetPoint" />
          </mxGeometry>
        </mxCell>
        <mxCell id="pXMUvUlf4i8bMqYEDKzL-5" value="Extends" style="edgeLabel;resizable=0;html=1;align=center;verticalAlign=middle;" parent="pXMUvUlf4i8bMqYEDKzL-4" connectable="0" vertex="1">
          <mxGeometry relative="1" as="geometry" />
        </mxCell>
        <mxCell id="pXMUvUlf4i8bMqYEDKzL-6" value="&lt;font style=&quot;font-size: 11px;&quot;&gt;Create Account&lt;/font&gt;" style="ellipse;whiteSpace=wrap;html=1;" parent="1" vertex="1">
          <mxGeometry x="398" y="602" width="100" height="60" as="geometry" />
        </mxCell>
        <mxCell id="pXMUvUlf4i8bMqYEDKzL-7" value="Extends" style="endArrow=classic;html=1;rounded=0;entryX=0.5;entryY=1;entryDx=0;entryDy=0;exitX=0.5;exitY=0;exitDx=0;exitDy=0;" parent="1" source="pXMUvUlf4i8bMqYEDKzL-6" target="VYkuQ8G43RXA0hPSaBdG-9" edge="1">
          <mxGeometry relative="1" as="geometry">
            <mxPoint x="448" y="502" as="sourcePoint" />
            <mxPoint x="548" y="502" as="targetPoint" />
          </mxGeometry>
        </mxCell>
        <mxCell id="pXMUvUlf4i8bMqYEDKzL-13" value="" style="endArrow=classic;html=1;rounded=0;exitX=1;exitY=0.3333333333333333;exitDx=0;exitDy=0;exitPerimeter=0;entryX=0;entryY=0.5;entryDx=0;entryDy=0;" parent="1" source="VYkuQ8G43RXA0hPSaBdG-4" target="YGv7T2RvrnoPIYcgh6Ru-4" edge="1">
          <mxGeometry width="50" height="50" relative="1" as="geometry">
            <mxPoint x="328" y="687" as="sourcePoint" />
            <mxPoint x="378" y="637" as="targetPoint" />
          </mxGeometry>
        </mxCell>
        <mxCell id="pXMUvUlf4i8bMqYEDKzL-24" value="&lt;font style=&quot;font-size: 11px;&quot;&gt;Create &lt;u&gt;Shared Match&lt;/u&gt;&lt;/font&gt;" style="ellipse;whiteSpace=wrap;html=1;" parent="1" vertex="1">
          <mxGeometry x="328.75" y="74.94" width="100" height="60" as="geometry" />
        </mxCell>
        <mxCell id="pXMUvUlf4i8bMqYEDKzL-35" value="*" style="text;html=1;strokeColor=none;fillColor=none;align=center;verticalAlign=middle;whiteSpace=wrap;rounded=0;" parent="1" vertex="1">
          <mxGeometry x="267.5" y="295" width="60" height="30" as="geometry" />
        </mxCell>
        <mxCell id="pXMUvUlf4i8bMqYEDKzL-37" value="*" style="text;html=1;strokeColor=none;fillColor=none;align=center;verticalAlign=middle;whiteSpace=wrap;rounded=0;" parent="1" vertex="1">
          <mxGeometry x="263.13" y="191" width="49.75" height="19" as="geometry" />
        </mxCell>
        <mxCell id="JSUpxwKBtzQWxORTPVua-3" value="" style="endArrow=classic;html=1;rounded=0;exitX=0;exitY=1;exitDx=0;exitDy=0;entryX=0.5;entryY=0;entryDx=0;entryDy=0;" parent="1" source="pXMUvUlf4i8bMqYEDKzL-24" target="YGv7T2RvrnoPIYcgh6Ru-2" edge="1">
          <mxGeometry relative="1" as="geometry">
            <mxPoint x="398" y="130" as="sourcePoint" />
            <mxPoint x="308" y="130" as="targetPoint" />
          </mxGeometry>
        </mxCell>
        <mxCell id="JSUpxwKBtzQWxORTPVua-4" value="Extends" style="edgeLabel;resizable=0;html=1;align=center;verticalAlign=middle;" parent="JSUpxwKBtzQWxORTPVua-3" connectable="0" vertex="1">
          <mxGeometry relative="1" as="geometry" />
        </mxCell>
        <mxCell id="JSUpxwKBtzQWxORTPVua-5" value="&lt;font style=&quot;font-size: 11px;&quot;&gt;Manage Tournament&lt;/font&gt;" style="ellipse;whiteSpace=wrap;html=1;" parent="1" vertex="1">
          <mxGeometry x="192.38" y="607" width="100" height="60" as="geometry" />
        </mxCell>
        <mxCell id="3cIT5jCqNrF9T8N8SsBt-2" value="*" style="text;html=1;strokeColor=none;fillColor=none;align=center;verticalAlign=middle;whiteSpace=wrap;rounded=0;" parent="1" vertex="1">
          <mxGeometry x="234.88" y="537" width="60" height="30" as="geometry" />
        </mxCell>
        <mxCell id="3cIT5jCqNrF9T8N8SsBt-3" value="*" style="text;html=1;strokeColor=none;fillColor=none;align=center;verticalAlign=middle;whiteSpace=wrap;rounded=0;" parent="1" vertex="1">
          <mxGeometry x="233.63" y="607" width="60" height="30" as="geometry" />
        </mxCell>
        <mxCell id="3cIT5jCqNrF9T8N8SsBt-4" value="" style="endArrow=classic;html=1;rounded=0;exitX=1;exitY=0.3333333333333333;exitDx=0;exitDy=0;exitPerimeter=0;entryX=0;entryY=0.5;entryDx=0;entryDy=0;" parent="1" source="VYkuQ8G43RXA0hPSaBdG-4" target="JSUpxwKBtzQWxORTPVua-5" edge="1">
          <mxGeometry width="50" height="50" relative="1" as="geometry">
            <mxPoint x="338" y="727" as="sourcePoint" />
            <mxPoint x="388" y="677" as="targetPoint" />
          </mxGeometry>
        </mxCell>
        <mxCell id="CUCYZQs7ReIc307yx0Ik-4" value="&lt;font style=&quot;font-size: 12px;&quot;&gt;Facebook API&lt;br&gt;&lt;/font&gt;" style="shape=umlActor;verticalLabelPosition=bottom;verticalAlign=top;html=1;" parent="1" vertex="1">
          <mxGeometry x="758" y="472" width="30" height="60" as="geometry" />
        </mxCell>
        <mxCell id="CUCYZQs7ReIc307yx0Ik-6" value="&lt;font style=&quot;font-size: 11px;&quot;&gt;Log In Via Facebook&lt;/font&gt;" style="ellipse;whiteSpace=wrap;html=1;" parent="1" vertex="1">
          <mxGeometry x="578" y="462" width="100" height="60" as="geometry" />
        </mxCell>
        <mxCell id="CUCYZQs7ReIc307yx0Ik-7" value="Extends" style="endArrow=classic;html=1;rounded=0;entryX=1;entryY=0.5;entryDx=0;entryDy=0;exitX=0;exitY=0.5;exitDx=0;exitDy=0;" parent="1" source="CUCYZQs7ReIc307yx0Ik-6" target="VYkuQ8G43RXA0hPSaBdG-9" edge="1">
          <mxGeometry relative="1" as="geometry">
            <mxPoint x="528" y="557" as="sourcePoint" />
            <mxPoint x="528" y="462" as="targetPoint" />
          </mxGeometry>
        </mxCell>
        <mxCell id="CUCYZQs7ReIc307yx0Ik-8" value="" style="endArrow=classic;html=1;rounded=0;entryX=0;entryY=0.3333333333333333;entryDx=0;entryDy=0;entryPerimeter=0;exitX=1;exitY=0.5;exitDx=0;exitDy=0;" parent="1" source="CUCYZQs7ReIc307yx0Ik-6" target="CUCYZQs7ReIc307yx0Ik-4" edge="1">
          <mxGeometry width="50" height="50" relative="1" as="geometry">
            <mxPoint x="648" y="492" as="sourcePoint" />
            <mxPoint x="698" y="442" as="targetPoint" />
          </mxGeometry>
        </mxCell>
        <mxCell id="u67dnZ7TjAeRBNaexq_y-3" value="&lt;font style=&quot;font-size: 11px;&quot;&gt;Manage Football Facility&lt;/font&gt;" style="ellipse;whiteSpace=wrap;html=1;" parent="1" vertex="1">
          <mxGeometry x="192.38" y="677" width="100" height="60" as="geometry" />
        </mxCell>
        <mxCell id="u67dnZ7TjAeRBNaexq_y-4" value="*" style="text;html=1;strokeColor=none;fillColor=none;align=center;verticalAlign=middle;whiteSpace=wrap;rounded=0;" parent="1" vertex="1">
          <mxGeometry x="233.01" y="677" width="60" height="30" as="geometry" />
        </mxCell>
        <mxCell id="u67dnZ7TjAeRBNaexq_y-5" value="" style="endArrow=classic;html=1;rounded=0;entryX=0;entryY=0.5;entryDx=0;entryDy=0;exitX=1;exitY=0.3333333333333333;exitDx=0;exitDy=0;exitPerimeter=0;" parent="1" source="VYkuQ8G43RXA0hPSaBdG-4" target="u67dnZ7TjAeRBNaexq_y-3" edge="1">
          <mxGeometry width="50" height="50" relative="1" as="geometry">
            <mxPoint x="310" y="727" as="sourcePoint" />
            <mxPoint x="360" y="677" as="targetPoint" />
          </mxGeometry>
        </mxCell>
        <mxCell id="_R4P_zVctG-r0srgMJjs-1" value="&lt;font style=&quot;font-size: 11px;&quot;&gt;Sign Up Tournament&lt;/font&gt;" style="ellipse;whiteSpace=wrap;html=1;" parent="1" vertex="1">
          <mxGeometry x="228.75" y="438" width="100" height="60" as="geometry" />
        </mxCell>
        <mxCell id="_R4P_zVctG-r0srgMJjs-2" value="*" style="text;html=1;strokeColor=none;fillColor=none;align=center;verticalAlign=middle;whiteSpace=wrap;rounded=0;" parent="1" vertex="1">
          <mxGeometry x="271.25" y="438" width="60" height="30" as="geometry" />
        </mxCell>
        <mxCell id="_R4P_zVctG-r0srgMJjs-3" value="" style="endArrow=classic;html=1;rounded=0;exitX=1;exitY=0.3333333333333333;exitDx=0;exitDy=0;exitPerimeter=0;entryX=0;entryY=0.5;entryDx=0;entryDy=0;" parent="1" source="VYkuQ8G43RXA0hPSaBdG-1" target="_R4P_zVctG-r0srgMJjs-1" edge="1">
          <mxGeometry width="50" height="50" relative="1" as="geometry">
            <mxPoint x="68" y="289" as="sourcePoint" />
            <mxPoint x="390" y="329" as="targetPoint" />
          </mxGeometry>
        </mxCell>
        <mxCell id="WrkPoL4GbuSK7aLicKeG-1" value="&lt;span style=&quot;color: rgb(0, 0, 0); font-family: Helvetica; font-size: 14px; font-style: normal; font-variant-ligatures: normal; font-variant-caps: normal; font-weight: 400; letter-spacing: normal; orphans: 2; text-align: left; text-indent: 0px; text-transform: none; widows: 2; word-spacing: 0px; -webkit-text-stroke-width: 0px; background-color: rgb(251, 251, 251); text-decoration-thickness: initial; text-decoration-style: initial; text-decoration-color: initial; float: none; display: inline !important;&quot;&gt;*: includes Log In&amp;nbsp;&lt;/span&gt;&lt;br style=&quot;border-color: var(--border-color); color: rgb(0, 0, 0); font-family: Helvetica; font-size: 14px; font-style: normal; font-variant-ligatures: normal; font-variant-caps: normal; font-weight: 400; letter-spacing: normal; orphans: 2; text-align: left; text-indent: 0px; text-transform: none; widows: 2; word-spacing: 0px; -webkit-text-stroke-width: 0px; background-color: rgb(251, 251, 251); text-decoration-thickness: initial; text-decoration-style: initial; text-decoration-color: initial;&quot;&gt;" style="text;whiteSpace=wrap;html=1;" parent="1" vertex="1">
          <mxGeometry x="558" y="74.94" width="140" height="40" as="geometry" />
        </mxCell>
        <mxCell id="oedeNcAQH1FVu-flYFop-1" value="" style="endArrow=none;html=1;rounded=0;exitX=1;exitY=0.3333333333333333;exitDx=0;exitDy=0;exitPerimeter=0;entryX=0;entryY=0;entryDx=0;entryDy=0;" parent="1" source="VYkuQ8G43RXA0hPSaBdG-1" target="YGv7T2RvrnoPIYcgh6Ru-4" edge="1">
          <mxGeometry width="50" height="50" relative="1" as="geometry">
            <mxPoint x="370" y="350" as="sourcePoint" />
            <mxPoint x="420" y="300" as="targetPoint" />
          </mxGeometry>
        </mxCell>
        <mxCell id="oedeNcAQH1FVu-flYFop-2" value="" style="endArrow=none;html=1;rounded=0;exitX=1;exitY=0.3333333333333333;exitDx=0;exitDy=0;exitPerimeter=0;entryX=0;entryY=1;entryDx=0;entryDy=0;" parent="1" source="VYkuQ8G43RXA0hPSaBdG-4" target="YGv7T2RvrnoPIYcgh6Ru-2" edge="1">
          <mxGeometry width="50" height="50" relative="1" as="geometry">
            <mxPoint x="360" y="400" as="sourcePoint" />
            <mxPoint x="410" y="350" as="targetPoint" />
          </mxGeometry>
        </mxCell>
        <mxCell id="IEFjeHZzLLoyQmGo69mW-1" value="&lt;font style=&quot;font-size: 12px;&quot;&gt;OpenStreetMap&lt;/font&gt;" style="shape=umlActor;verticalLabelPosition=bottom;verticalAlign=top;html=1;outlineConnect=0;fontSize=17;" parent="1" vertex="1">
          <mxGeometry x="758" y="199" width="30" height="60" as="geometry" />
        </mxCell>
        <mxCell id="IEFjeHZzLLoyQmGo69mW-3" value="&lt;font style=&quot;font-size: 14px;&quot;&gt;&lt;b&gt;Let&#39;s Play Use Case Diagram&lt;/b&gt;&lt;/font&gt;" style="text;html=1;align=center;verticalAlign=middle;resizable=0;points=[];autosize=1;strokeColor=none;fillColor=none;" parent="1" vertex="1">
          <mxGeometry x="304" y="10" width="220" height="30" as="geometry" />
        </mxCell>
        <mxCell id="IEFjeHZzLLoyQmGo69mW-4" value="" style="endArrow=classic;html=1;rounded=0;exitX=1;exitY=0.5;exitDx=0;exitDy=0;entryX=0;entryY=0.3333333333333333;entryDx=0;entryDy=0;entryPerimeter=0;" parent="1" source="YGv7T2RvrnoPIYcgh6Ru-2" target="IEFjeHZzLLoyQmGo69mW-1" edge="1">
          <mxGeometry width="50" height="50" relative="1" as="geometry">
            <mxPoint x="490" y="320" as="sourcePoint" />
            <mxPoint x="540" y="270" as="targetPoint" />
          </mxGeometry>
        </mxCell>
        <mxCell id="p2DX7BqOaOUJ9cI4G1Uk-1" value="&lt;font style=&quot;font-size: 11px;&quot;&gt;Manage Reservation&lt;/font&gt;" style="ellipse;whiteSpace=wrap;html=1;" vertex="1" parent="1">
          <mxGeometry x="227.5" y="366" width="100" height="60" as="geometry" />
        </mxCell>
        <mxCell id="p2DX7BqOaOUJ9cI4G1Uk-2" value="*" style="text;html=1;strokeColor=none;fillColor=none;align=center;verticalAlign=middle;whiteSpace=wrap;rounded=0;" vertex="1" parent="1">
          <mxGeometry x="270" y="366" width="60" height="30" as="geometry" />
        </mxCell>
        <mxCell id="p2DX7BqOaOUJ9cI4G1Uk-3" value="" style="endArrow=classic;html=1;rounded=0;exitX=1;exitY=0.3333333333333333;exitDx=0;exitDy=0;exitPerimeter=0;entryX=0;entryY=0.5;entryDx=0;entryDy=0;" edge="1" parent="1" source="VYkuQ8G43RXA0hPSaBdG-1" target="p2DX7BqOaOUJ9cI4G1Uk-1">
          <mxGeometry width="50" height="50" relative="1" as="geometry">
            <mxPoint x="330" y="370" as="sourcePoint" />
            <mxPoint x="380" y="320" as="targetPoint" />
          </mxGeometry>
        </mxCell>
      </root>
    </mxGraphModel>
  </diagram>
</mxfile>
